<svg width="100" height="113" fill="none" xmlns="http://www.w3.org/2000/svg"><g clip-path="url(#clip0)"><path d="M100 0H0v112.5h100V0z" fill="#fff"/><path d="M41.205 83.993c-.535 0-.985.336-1.15.8l-2.349 5.948-.207.679-.186-.686L35.5 84.95a.082.082 0 00-.02-.05v-.014a1.235 1.235 0 00-1.165-.829H31.38a1.247 1.247 0 00-1.186 1.243c0 .178.086.414.143.635l.386 1.207-1.435 3.62-.229.672-.186-.678-1.806-5.799c-.022-.021-.022-.043-.029-.05v-.014a1.235 1.235 0 00-1.164-.829h-2.935a1.252 1.252 0 00-1.185 1.243c0 .178.07.414.15.635l4.391 13.09c.129.536.629.928 1.193.928.557 0 1.028-.357 1.178-.864l3.078-7.762.229-.693.185.686 2.593 7.705c.135.536.614.928 1.2.928.564 0 1.028-.371 1.192-.9l5.206-13.267c.072-.165.129-.35.129-.536-.029-.707-.586-1.264-1.272-1.264zm21.895 0c-.535 0-.985.336-1.163.8l-2.335 5.948-.222.679-.171-.686-1.828-5.784c0-.022 0-.043-.008-.05v-.014a1.251 1.251 0 00-1.17-.829h-2.936A1.24 1.24 0 0052.09 85.3c0 .178.064.414.143.635l.385 1.207-1.442 3.62-.236.672-.178-.678-1.807-5.799c-.022-.021-.022-.043-.029-.05v-.014a1.217 1.217 0 00-1.15-.829h-2.942a1.242 1.242 0 00-1.185 1.243c0 .178.085.414.143.635l4.406 13.09a1.22 1.22 0 001.192.928c.55 0 1.014-.357 1.179-.864l3.07-7.762.215-.693.193.686 2.578 7.705a1.24 1.24 0 002.392.029l5.206-13.269c.079-.164.121-.35.121-.535 0-.707-.564-1.264-1.242-1.264zm14.22.029H67.056a1.07 1.07 0 00-1.071 1.07v13.633c0 .007 0-.007 0 0a1.16 1.16 0 001.15 1.114h2.906a1.165 1.165 0 001.136-1.15v-6.37l4.184-.007a1.117 1.117 0 001.107-1.128c0-.607-.5-1.121-1.128-1.121h-4.15l-.006-3.642h6.191a1.209 1.209 0 001.15-1.207c0-.657-.55-1.192-1.207-1.192zM61.401 40.575c1.871 2.093 2.071 8.313 6.763 5.842 2.82-1.486 2.785-7.77-.978-10.033-3.05-1.8-4.714.628-5.813 3.606-.093.235-.1.471.028.585zm-7.291-.992c-1.964 1.628-3.314 6.084-6.92 4.57-2.914-1.485-3.2-7.262 1.828-9.933 3.5-1.607 5.277 1.578 5.306 4.963 0 .121-.114.3-.214.4zm4.842 11.376c1.935-.2 1.5-2 .028-2.45-1.314-.393-3.3-.643-4.706-.621-2.492.057-2.428 1.964-1.135 2.285.978.328 1.614.457 2.456 1.55.779 1.5.436-.45 3.357-.764zm9.141-32.164c2.435-4.049 6.67-3.263 8.79-1.25 2.336 2.193 2.714 4.728 1.814 6.513-1.22 2.392-4.334 5.299-6.362 2.485-.893-1.242-2.8-2.728-3.835-3.149-1.593-.671-1.893-2.114-.407-4.599z" fill="#000"/><path d="M59.116 55.179c-1.064 2.806-6.57 1.842-6.742-.871 0-.108.15-.086.208-.072 2.45.572 4.784.843 6.362.836.065.007.193-.029.172.107zm18.667-18.517c-.221-.721-.578-.678-.557-.086.2 7.384-4.213 15.297-13.654 15.354-2.414.007-1.692 3.87-6.092 1.928-3.177-2.142-4.991 2.07-7.255-2.464-.493-1.307-1.236-1.828-2.2-2.07-9.319-2.307-12.297-15.14-4.077-25.494 1.628.97 2.22 1.12 3.956-.472.907-.835 2.42-1.756 3.25-2.063 1.977-.757 3.049-1.6 1.335-5.363-2.193-4.892-6.677-3.507-8.734-1.821-2.314 1.913-3.942 4.991-.957 8.619-8.348 5.634-9.784 12.554-9.59 18.567.2 6.398-1.436 5.848.599 12.36.179.572-.221.558-.528.372-8.706-5.57-13.405-22.566.157-31.935.307-.271.178-.628-.936.022-11.74 6.205-12.819 18.23-10.869 26.336.95 3.92-.493 4.649 1.028 9.805 3.492 10.747 6.47 11.59 10.684 11.904 7.662 0 2.464-4.22 2.742-9.534 0-.307.379-.464.593.179 4.213 9.455 7.191 18.06 18.275 17.253 6.412-.836 2.856-4.02 2.463-5.827-4.72-15.654 6.727-19.345 3.492-4.085-2.142 8.74 4.628 7.87 9.384 4.727 4.906-3.213 11.048-24.493 7.491-36.212z" fill="#000"/><path d="M32.479 71.696a2.467 2.467 0 00-2.464 2.457 2.469 2.469 0 002.464 2.463 2.457 2.457 0 002.45-2.463 2.455 2.455 0 00-2.45-2.457zm2.05 2.457c0 1.135-.929 2.05-2.05 2.05a2.045 2.045 0 110-4.093c1.128 0 2.05.914 2.05 2.043z" fill="#000"/><path d="M33.179 74.538c-.05.3-.3.507-.643.507-.471 0-.771-.421-.771-.892 0-.5.271-.872.77-.872.33 0 .58.193.644.486h.342c-.057-.543-.485-.85-.992-.85-.736 0-1.15.536-1.15 1.236 0 .707.457 1.242 1.164 1.242.5 0 .9-.321 1-.85h-.364v-.007zm42.498 3.021a2.447 2.447 0 00-2.457 2.456 2.443 2.443 0 002.457 2.457 2.452 2.452 0 002.456-2.457 2.461 2.461 0 00-2.456-2.456zm2.05 2.456c0 1.136-.93 2.05-2.05 2.05a2.053 2.053 0 01-2.064-2.05c0-1.128.921-2.042 2.064-2.042 1.128 0 2.05.914 2.05 2.042z" fill="#000"/><path d="M75.248 79.88v-.721h.479c.242 0 .5.064.5.35 0 .356-.265.37-.572.37h-.407zm0 .307h.4l.621 1h.386l-.664-1.029c.343-.043.607-.221.607-.628 0-.464-.264-.657-.814-.657h-.893v2.313h.364v-1h-.007z" fill="#000"/></g><defs><clipPath id="clip0"><path fill="#fff" d="M0 0h100v112.5H0z"/></clipPath></defs></svg>